# This file uses centimeters as units for non-parametric coordinates.

mtllib BankBijTafel.mtl
g default
v -1.238123 -0.009186 -0.263600
v -1.382979 -0.009186 -0.263600
v -1.238123 0.720768 -0.204991
v -1.382979 0.720768 -0.204991
v -1.238123 0.720768 -0.349848
v -1.382979 0.720768 -0.349848
v -1.238123 -0.009186 -0.408456
v -1.382979 -0.009186 -0.408456
v -1.238123 0.332720 -0.252572
v -1.382979 0.332720 -0.252572
v -1.382979 0.332720 -0.397429
v -1.238123 0.332720 -0.397429
v -1.270642 0.311389 0.038812
v 1.270642 0.311389 0.038812
v -1.270642 0.389013 0.038812
v 1.270642 0.389013 0.038812
v -1.270642 0.389013 -0.038812
v 1.270642 0.389013 -0.038812
v -1.270642 0.311389 -0.038812
v 1.270642 0.311389 -0.038812
v -1.364214 0.298448 0.267810
v -1.255665 0.298448 0.267810
v -1.364214 0.406997 0.267810
v -1.255665 0.406997 0.267810
v -1.364214 0.406997 -0.267810
v -1.255665 0.406997 -0.267810
v -1.364214 0.298448 -0.267810
v -1.255665 0.298448 -0.267810
v -1.238123 -0.009186 0.263600
v -1.382979 -0.009186 0.263600
v -1.238123 0.720768 0.204991
v -1.382979 0.720768 0.204991
v -1.238123 0.720768 0.349848
v -1.382979 0.720768 0.349848
v -1.238123 -0.009186 0.408456
v -1.382979 -0.009186 0.408456
v -1.238123 0.332720 0.252572
v -1.382979 0.332720 0.252572
v -1.382979 0.332720 0.397429
v -1.238123 0.332720 0.397429
v -1.789200 0.715093 0.339496
v 1.789200 0.715093 0.339496
v -1.789200 0.839160 0.339496
v 1.789200 0.839160 0.339496
v -1.789200 0.839160 -0.339496
v 1.789200 0.839160 -0.339496
v -1.789200 0.715093 -0.339496
v 1.789200 0.715093 -0.339496
v -1.789200 0.839160 0.000000
v 1.789200 0.839160 0.000000
v 1.789200 0.715093 0.000000
v -1.789200 0.715093 0.000000
v 0.000000 0.715093 0.408078
v 0.000000 0.715093 0.000000
v 0.000000 0.715093 -0.408078
v 0.000000 0.839160 -0.408078
v 0.000000 0.839160 0.000000
v 0.000000 0.839160 0.408078
v 1.735224 0.715093 0.000000
v 1.735224 0.715093 0.408078
v 1.735224 0.839160 0.408078
v 1.735224 0.839160 0.000000
v 1.735224 0.839160 -0.408078
v 1.735224 0.715093 -0.408078
v -1.735224 0.715093 0.000000
v -1.735224 0.715093 0.408078
v -1.735224 0.839160 0.408078
v -1.735224 0.839160 0.000000
v -1.735224 0.839160 -0.408078
v -1.735224 0.715093 -0.408078
v 1.238123 -0.009186 -0.263600
v 1.382979 -0.009186 -0.263600
v 1.238123 0.720768 -0.204991
v 1.382979 0.720768 -0.204991
v 1.238123 0.720768 -0.349848
v 1.382979 0.720768 -0.349848
v 1.238123 -0.009186 -0.408456
v 1.382979 -0.009186 -0.408456
v 1.238123 0.332720 -0.252572
v 1.382979 0.332720 -0.252572
v 1.382979 0.332720 -0.397429
v 1.238123 0.332720 -0.397429
v 1.364214 0.298448 0.267810
v 1.255666 0.298448 0.267810
v 1.364214 0.406997 0.267810
v 1.255666 0.406997 0.267810
v 1.364214 0.406997 -0.267810
v 1.255666 0.406997 -0.267810
v 1.364214 0.298448 -0.267810
v 1.255666 0.298448 -0.267810
v 1.238123 -0.009186 0.263600
v 1.382979 -0.009186 0.263600
v 1.238123 0.720768 0.204991
v 1.382979 0.720768 0.204991
v 1.238123 0.720768 0.349848
v 1.382979 0.720768 0.349848
v 1.238123 -0.009186 0.408456
v 1.382979 -0.009186 0.408456
v 1.238123 0.332720 0.252572
v 1.382979 0.332720 0.252572
v 1.382979 0.332720 0.397429
v 1.238123 0.332720 0.397429
vt 0.493572 0.372493
vt 0.556673 0.330027
vt 0.509333 0.330027
vt 0.509333 0.372494
vt 0.540926 0.330027
vt 0.525090 0.330027
vt 0.540926 0.372494
vt 0.525090 0.372494
vt 0.540926 0.409685
vt 0.556673 0.409685
vt 0.509333 0.409685
vt 0.525090 0.409685
vt 0.471051 0.377814
vt 0.471051 0.338476
vt 0.053057 0.338476
vt 0.471051 0.350885
vt 0.471051 0.363295
vt 0.050190 0.414803
vt 0.050190 0.400187
vt 0.122308 0.400187
vt 0.122308 0.414803
vt 0.122308 0.429418
vt 0.122308 0.444034
vt 0.050190 0.385572
vt 0.050190 0.429418
vt 0.407690 0.426733
vt 0.455122 0.426733
vt 0.455121 0.384264
vt 0.470883 0.384264
vt 0.439486 0.384264
vt 0.423649 0.384264
vt 0.439486 0.426733
vt 0.423649 0.426733
vt 0.423649 0.463925
vt 0.439486 0.463925
vt 0.455122 0.463925
vt 0.470883 0.463925
vt 0.303612 0.184566
vt 0.303584 0.167347
vt 0.544412 0.166969
vt 0.544439 0.184188
vt 0.303789 0.297838
vt 0.303701 0.241202
vt 0.544528 0.240824
vt 0.303407 0.054075
vt 0.303496 0.110711
vt 0.544323 0.110333
vt 0.552019 0.240812
vt 0.551814 0.110321
vt 0.551740 0.063204
vt 0.556729 0.297441
vt 0.055103 0.063983
vt 0.055177 0.111101
vt 0.055382 0.241592
vt 0.055456 0.288710
vt 0.556524 0.166950
vt 0.551945 0.193694
vt 0.038089 0.194501
vt 0.055308 0.194474
vt 0.062668 0.111089
vt 0.062757 0.167725
vt 0.062579 0.054453
vt 0.062962 0.298216
vt 0.062873 0.241580
vt 0.062784 0.184944
vt 0.231097 0.427268
vt 0.278361 0.427268
vt 0.278361 0.384726
vt 0.294135 0.384726
vt 0.262684 0.384726
vt 0.246876 0.384726
vt 0.262684 0.427268
vt 0.246876 0.427268
vt 0.246876 0.464492
vt 0.262684 0.464492
vt 0.262684 0.480708
vt 0.231097 0.464492
vt 0.200874 0.413816
vt 0.130667 0.413816
vt 0.130667 0.399588
vt 0.200874 0.399588
vt 0.130667 0.428044
vt 0.200874 0.428044
vt 0.200874 0.442272
vt 0.130667 0.385359
vt 0.314174 0.427209
vt 0.377345 0.384756
vt 0.329930 0.384756
vt 0.329930 0.427209
vt 0.361283 0.384756
vt 0.345451 0.384756
vt 0.361283 0.427209
vt 0.345451 0.427209
vt 0.361283 0.464388
vt 0.377345 0.464388
vt 0.329930 0.464388
vt 0.345451 0.464388
vt 0.053057 0.350885
vt 0.053057 0.363295
vt 0.053057 0.326066
vt 0.544617 0.297460
vt 0.544234 0.053697
vt 0.062989 0.315435
vt 0.303816 0.315057
vt 0.544644 0.314679
vt 0.569312 0.287903
vt 0.556756 0.314660
vt 0.544617 0.297460
vt 0.552093 0.287930
vt 0.556551 0.184169
vt 0.569164 0.193667
vt 0.551888 0.157439
vt 0.038163 0.241619
vt 0.050645 0.167744
vt 0.055251 0.158219
vt 0.569238 0.240785
vt 0.050876 0.315454
vt 0.038237 0.288737
vt 0.050849 0.298235
vt 0.050672 0.184963
vt 0.053057 0.377814
vt 0.471051 0.326066
vt 0.361283 0.481088
vt 0.314174 0.464388
vt 0.377345 0.427209
vt 0.345451 0.481088
vt 0.294135 0.427268
vt 0.278361 0.464492
vt 0.294135 0.464492
vt 0.246876 0.480708
vt 0.423649 0.480399
vt 0.407690 0.463925
vt 0.470883 0.426733
vt 0.439486 0.480399
vt 0.540926 0.425988
vt 0.493572 0.409685
vt 0.556673 0.372494
vt 0.525090 0.425988
vt 0.314174 0.384756
vt 0.231097 0.384726
vt 0.407690 0.384264
vt 0.493572 0.330027
vt 0.130667 0.442272
vt 0.200874 0.385359
vt 0.122308 0.385572
vt 0.050190 0.444034
vn 0.000000 -0.080033 0.996792
vn 0.000000 -0.121705 0.992566
vn 0.000000 -0.121705 0.992566
vn 0.000000 -0.080033 0.996792
vn 0.000000 0.121705 -0.992566
vn 0.000000 0.080033 -0.996792
vn 0.000000 0.080033 -0.996792
vn 0.000000 0.121705 -0.992566
vn 0.000000 -1.000000 0.000000
vn 0.000000 -1.000000 0.000000
vn 0.000000 -1.000000 0.000000
vn 0.000000 -1.000000 0.000000
vn -1.000000 0.000000 0.000000
vn -1.000000 0.000000 0.000000
vn -1.000000 0.000000 0.000000
vn -1.000000 0.000000 0.000000
vn 1.000000 -0.000000 0.000000
vn 1.000000 -0.000000 0.000000
vn 1.000000 -0.000000 0.000000
vn 1.000000 -0.000000 0.000000
vn 0.000000 -0.032236 0.999480
vn 0.000000 -0.032236 0.999480
vn -1.000000 0.000000 0.000000
vn -1.000000 0.000000 0.000000
vn 0.000000 0.032236 -0.999480
vn 0.000000 0.032236 -0.999480
vn 1.000000 0.000000 0.000000
vn 1.000000 0.000000 0.000000
vn 0.000000 0.000000 1.000000
vn 0.000000 0.000000 1.000000
vn 0.000000 0.000000 1.000000
vn 0.000000 0.000000 1.000000
vn 0.000000 1.000000 0.000000
vn 0.000000 1.000000 0.000000
vn 0.000000 1.000000 0.000000
vn 0.000000 1.000000 0.000000
vn 0.000000 0.000000 -1.000000
vn 0.000000 0.000000 -1.000000
vn 0.000000 0.000000 -1.000000
vn 0.000000 0.000000 -1.000000
vn 0.000000 -1.000000 0.000000
vn 0.000000 -1.000000 0.000000
vn 0.000000 -1.000000 0.000000
vn 0.000000 -1.000000 0.000000
vn 0.000000 1.000000 0.000000
vn 0.000000 1.000000 0.000000
vn 0.000000 1.000000 0.000000
vn 0.000000 1.000000 0.000000
vn 0.000000 -1.000000 0.000000
vn 0.000000 -1.000000 0.000000
vn 0.000000 -1.000000 0.000000
vn 0.000000 -1.000000 0.000000
vn 1.000000 0.000000 0.000000
vn 1.000000 0.000000 0.000000
vn 1.000000 0.000000 0.000000
vn 1.000000 0.000000 0.000000
vn -1.000000 0.000000 0.000000
vn -1.000000 0.000000 0.000000
vn -1.000000 0.000000 0.000000
vn -1.000000 0.000000 0.000000
vn 0.000000 -0.080033 -0.996792
vn 0.000000 -0.080033 -0.996792
vn 0.000000 -0.121705 -0.992566
vn 0.000000 -0.121705 -0.992566
vn 0.000000 0.121705 0.992566
vn 0.000000 0.121705 0.992566
vn 0.000000 0.080033 0.996792
vn 0.000000 0.080033 0.996792
vn 0.000000 -1.000000 0.000000
vn 0.000000 -1.000000 0.000000
vn 0.000000 -1.000000 0.000000
vn 0.000000 -1.000000 0.000000
vn -1.000000 0.000000 0.000000
vn -1.000000 0.000000 0.000000
vn -1.000000 0.000000 0.000000
vn -1.000000 0.000000 0.000000
vn 1.000000 -0.000000 0.000000
vn 1.000000 -0.000000 0.000000
vn 1.000000 0.000000 0.000000
vn 1.000000 0.000000 0.000000
vn 0.000000 -0.032236 -0.999480
vn 0.000000 -0.032236 -0.999480
vn -1.000000 0.000000 0.000000
vn -1.000000 0.000000 0.000000
vn 0.000000 0.032236 0.999480
vn 0.000000 0.032236 0.999480
vn 1.000000 -0.000000 0.000000
vn 1.000000 -0.000000 0.000000
vn 0.000000 0.000000 1.000000
vn 0.000000 0.000000 1.000000
vn 0.038303 0.000000 0.999266
vn 0.038303 0.000000 0.999266
vn 0.000000 1.000000 0.000000
vn 0.000000 1.000000 0.000000
vn 0.000000 1.000000 0.000000
vn 0.000000 1.000000 0.000000
vn 0.000000 0.000000 -1.000000
vn 0.000000 0.000000 -1.000000
vn 0.038303 0.000000 -0.999266
vn 0.038303 0.000000 -0.999266
vn 0.000000 -1.000000 0.000000
vn 0.000000 -1.000000 0.000000
vn 0.000000 -1.000000 0.000000
vn 0.000000 -1.000000 0.000000
vn 1.000000 0.000000 0.000000
vn 1.000000 0.000000 0.000000
vn 1.000000 0.000000 0.000000
vn 1.000000 0.000000 0.000000
vn -1.000000 0.000000 0.000000
vn -1.000000 0.000000 0.000000
vn -1.000000 0.000000 0.000000
vn -1.000000 0.000000 0.000000
vn 0.000000 1.000000 0.000000
vn 0.000000 1.000000 0.000000
vn 1.000000 0.000000 0.000000
vn 1.000000 0.000000 0.000000
vn 0.000000 -1.000000 0.000000
vn 0.000000 -1.000000 0.000000
vn -1.000000 0.000000 0.000000
vn -1.000000 0.000000 0.000000
vn 0.000000 -1.000000 0.000000
vn 0.000000 -1.000000 0.000000
vn 0.000000 -1.000000 0.000000
vn 0.000000 -1.000000 0.000000
vn 0.000000 -1.000000 0.000000
vn 0.000000 -1.000000 0.000000
vn -0.785811 0.000000 -0.618467
vn -0.038303 0.000000 -0.999266
vn -0.038303 0.000000 -0.999266
vn -0.785811 0.000000 -0.618467
vn 0.000000 1.000000 0.000000
vn 0.000000 1.000000 0.000000
vn 0.000000 1.000000 0.000000
vn 0.000000 1.000000 0.000000
vn 0.000000 1.000000 0.000000
vn 0.000000 1.000000 0.000000
vn -0.785811 0.000000 0.618467
vn -0.038303 0.000000 0.999266
vn -0.038303 0.000000 0.999266
vn -0.785811 0.000000 0.618467
vn 0.000000 -1.000000 0.000000
vn 0.000000 -1.000000 0.000000
vn 0.785811 0.000000 0.618467
vn 0.785811 0.000000 0.618467
vn 0.000000 1.000000 0.000000
vn 0.000000 1.000000 0.000000
vn 0.000000 1.000000 0.000000
vn 0.785811 0.000000 -0.618467
vn 0.785811 0.000000 -0.618467
vn 0.000000 -1.000000 0.000000
vn 0.000000 -0.080033 0.996792
vn 0.000000 -0.080033 0.996792
vn 0.000000 -0.121705 0.992566
vn 0.000000 -0.121705 0.992566
vn 0.000000 0.121705 -0.992566
vn 0.000000 0.121705 -0.992566
vn 0.000000 0.080033 -0.996792
vn 0.000000 0.080033 -0.996792
vn 0.000000 -1.000000 0.000000
vn 0.000000 -1.000000 0.000000
vn 0.000000 -1.000000 0.000000
vn 0.000000 -1.000000 0.000000
vn 1.000000 0.000000 0.000000
vn 1.000000 0.000000 0.000000
vn 1.000000 0.000000 0.000000
vn 1.000000 0.000000 0.000000
vn -1.000000 -0.000000 0.000000
vn -1.000000 -0.000000 0.000000
vn -1.000000 -0.000000 0.000000
vn -1.000000 -0.000000 0.000000
vn 0.000000 -0.032236 0.999480
vn 0.000000 -0.032236 0.999480
vn 1.000000 -0.000000 0.000000
vn 1.000000 -0.000000 0.000000
vn 0.000000 0.032236 -0.999480
vn 0.000000 0.032236 -0.999480
vn -1.000000 -0.000000 0.000000
vn -1.000000 -0.000000 0.000000
vn 0.000000 1.000000 0.000000
vn 0.000000 1.000000 0.000000
vn 0.000000 1.000000 0.000000
vn 0.000000 1.000000 0.000000
vn 0.000000 -1.000000 0.000000
vn 0.000000 -1.000000 0.000000
vn 0.000000 -1.000000 0.000000
vn 0.000000 -1.000000 0.000000
vn -1.000000 0.000000 0.000000
vn -1.000000 0.000000 0.000000
vn -1.000000 0.000000 0.000000
vn -1.000000 0.000000 0.000000
vn 1.000000 0.000000 0.000000
vn 1.000000 0.000000 0.000000
vn 1.000000 0.000000 0.000000
vn 1.000000 0.000000 0.000000
vn 0.000000 -0.080033 -0.996792
vn 0.000000 -0.121705 -0.992566
vn 0.000000 -0.121705 -0.992566
vn 0.000000 -0.080033 -0.996792
vn 0.000000 0.121705 0.992566
vn 0.000000 0.080033 0.996792
vn 0.000000 0.080033 0.996792
vn 0.000000 0.121705 0.992566
vn 0.000000 -1.000000 0.000000
vn 0.000000 -1.000000 0.000000
vn 0.000000 -1.000000 0.000000
vn 0.000000 -1.000000 0.000000
vn 1.000000 0.000000 0.000000
vn 1.000000 0.000000 0.000000
vn 1.000000 0.000000 0.000000
vn 1.000000 0.000000 0.000000
vn -1.000000 0.000000 0.000000
vn -1.000000 0.000000 0.000000
vn -1.000000 0.000000 0.000000
vn -1.000000 0.000000 0.000000
vn 0.000000 -0.032236 -0.999480
vn 0.000000 -0.032236 -0.999480
vn 1.000000 0.000000 0.000000
vn 1.000000 0.000000 0.000000
vn 0.000000 0.032236 0.999480
vn 0.000000 0.032236 0.999480
vn -1.000000 0.000000 0.000000
vn -1.000000 0.000000 0.000000
s 1
g bANK
usemtl initialShadingGroup
f 9/1/1 3/142/2 4/3/3 10/4/4
s 2
f 5/5/5 12/7/6 11/8/7 6/6/8
s off
f 7/9/9 1/135/10 2/138/11 8/12/12
s 3
f 10/4/13 4/3/14 6/6/15 11/8/16
s 4
f 12/7/17 5/5/18 3/2/19 9/137/20
s 1
f 1/136/21 9/1/1 10/4/4 2/11/22
s 3
f 2/11/23 10/4/13 11/8/16 8/12/24
s 2
f 12/7/6 7/9/25 8/12/26 11/8/7
s 4
f 7/9/27 12/7/17 9/137/20 1/10/28
s off
f 13/100/29 14/122/30 16/14/31 15/15/32
f 15/15/33 16/14/34 18/16/35 17/98/36
f 17/98/37 18/16/38 20/17/39 19/99/40
f 19/99/41 20/17/42 14/13/43 13/121/44
f 23/18/45 24/19/46 26/20/47 25/21/48
f 27/22/49 28/23/50 22/146/51 21/25/52
f 22/24/53 28/145/54 26/20/55 24/19/56
f 27/22/57 21/25/58 23/18/59 25/21/60
s 5
f 37/133/61 38/27/62 32/28/63 31/29/64
s 6
f 33/31/65 34/30/66 39/32/67 40/33/68
s off
f 35/34/69 36/35/70 30/134/71 29/131/72
s 7
f 38/27/73 39/32/74 34/30/75 32/28/76
s 8
f 40/33/77 37/26/78 31/141/79 33/31/80
s 5
f 29/37/81 30/36/82 38/27/62 37/133/61
s 7
f 30/36/83 36/35/84 39/32/74 38/27/73
s 6
f 40/33/68 39/32/67 36/35/85 35/34/86
s 8
f 35/34/87 29/132/88 37/26/78 40/33/77
s 9
f 58/38/89 53/39/90 60/40/91 61/41/92
s 10
f 56/42/93 57/43/94 62/44/95 63/101/96
s 11
f 55/104/97 56/42/98 63/101/99 64/105/100
s 12
f 54/46/101 55/45/102 64/102/103 59/47/104
s 13
f 50/48/105 51/116/106 48/106/107 46/109/108
s 14
f 47/118/109 52/113/110 49/54/111 45/55/112
s 10
f 57/43/94 58/38/113 61/41/114 62/44/95
s 13
f 42/111/115 51/116/106 50/48/105 44/57/116
s 12
f 53/39/117 54/46/101 59/47/104 60/40/118
s 14
f 49/54/111 52/113/110 41/58/119 43/59/120
s 12
f 52/53/121 65/60/122 66/61/123 41/115/124
f 47/52/125 70/62/126 65/60/122 52/53/121
s 11
f 45/119/127 69/63/128 70/103/129 47/117/130
s 10
f 49/54/131 68/64/132 69/63/133 45/55/134
f 43/59/135 67/65/136 68/64/132 49/54/131
s 9
f 41/114/137 66/61/138 67/65/139 43/120/140
s 12
f 60/40/118 59/47/104 51/49/141 42/112/142
s 9
f 61/41/92 60/40/91 42/56/143 44/110/144
s 10
f 62/44/95 61/41/114 44/57/145 50/48/146
f 63/108/96 62/44/95 50/48/146 46/109/147
s 11
f 64/105/100 63/101/99 46/51/148 48/107/149
s 12
f 59/47/104 64/102/103 48/50/150 51/49/141
f 66/61/123 65/60/122 54/46/101 53/39/117
s 9
f 67/65/139 66/61/138 53/39/90 58/38/89
s 10
f 68/64/132 67/65/136 58/38/113 57/43/94
f 69/63/133 68/64/132 57/43/94 56/42/93
s 11
f 70/103/129 69/63/128 56/42/98 55/104/97
s 12
f 65/60/122 70/62/126 55/45/102 54/46/101
s 17
f 79/127/151 80/67/152 74/68/153 73/69/154
s 18
f 75/71/155 76/70/156 81/72/157 82/73/158
s off
f 77/74/159 78/75/160 72/76/161 71/130/162
s 19
f 80/67/163 81/72/164 76/70/165 74/68/166
s 20
f 82/73/167 79/66/168 73/140/169 75/71/170
s 17
f 71/129/171 72/128/172 80/67/152 79/127/151
s 19
f 72/128/173 78/75/174 81/72/164 80/67/163
s 18
f 82/73/158 81/72/157 78/75/175 77/74/176
s 20
f 77/74/177 71/77/178 79/66/168 82/73/167
s off
f 85/78/179 87/79/180 88/80/181 86/81/182
f 89/82/183 83/83/184 84/84/185 90/143/186
f 84/144/187 86/81/188 88/80/189 90/85/190
f 89/82/191 87/79/192 85/78/193 83/83/194
s 21
f 99/86/195 93/139/196 94/88/197 100/89/198
s 22
f 95/90/199 102/92/200 101/93/201 96/91/202
s off
f 97/94/203 91/123/204 92/126/205 98/97/206
s 23
f 100/89/207 94/88/208 96/91/209 101/93/210
s 24
f 102/92/211 95/90/212 93/87/213 99/125/214
s 21
f 91/124/215 99/86/195 100/89/198 92/96/216
s 23
f 92/96/217 100/89/207 101/93/210 98/97/218
s 22
f 102/92/200 97/94/219 98/97/220 101/93/201
s 24
f 97/94/221 102/92/211 99/125/214 91/95/222
