# This file uses centimeters as units for non-parametric coordinates.

mtllib schild 02.mtl
g default
v -0.437901 0.847453 0.060747
v 0.000000 0.847452 0.097751
v 0.437901 0.847453 0.060747
v 0.437899 0.866114 -0.010550
v 0.000000 0.866115 0.000000
v -0.437899 0.866114 -0.010550
v 0.662894 0.866115 -0.061698
v 0.662895 0.847453 0.009599
v -0.662894 0.866115 -0.061698
v -0.662894 0.847453 0.009599
v -0.256351 -0.866115 0.060747
v 0.000000 -0.866115 0.097751
v 0.256351 -0.866115 0.060747
v 0.444591 -0.866115 0.009599
v 0.444590 -0.866115 -0.061698
v 0.256350 -0.866115 -0.010550
v 0.000000 -0.866115 0.000000
v -0.256351 -0.866115 -0.010550
v -0.444590 -0.866115 -0.061698
v -0.444591 -0.866115 0.009599
v 0.000000 0.944491 0.100462
v 0.000000 0.872761 0.106292
v 0.441179 0.872645 0.069059
v 0.443785 0.944516 0.063247
v 0.000000 0.959840 -0.002696
v 0.439532 0.960262 -0.012689
v 0.435266 0.883738 -0.019403
v 0.000000 0.883608 -0.009115
v 0.000000 -0.922936 0.100496
v 0.000000 -0.923514 -0.002683
v 0.251667 -0.923925 -0.012652
v 0.256553 -0.923049 0.063133
v 0.746885 0.864777 -0.008471
v 0.743359 0.865026 -0.084691
v 0.734171 0.939722 -0.081539
v 0.736577 0.925315 -0.011014
v -0.743359 0.865026 -0.084691
v -0.746885 0.864777 -0.008471
v -0.736577 0.925315 -0.011014
v -0.734171 0.939722 -0.081539
v -0.251667 -0.923925 -0.012652
v -0.256553 -0.923049 0.063133
v -0.439531 0.960262 -0.012689
v -0.435266 0.883738 -0.019403
v -0.443785 0.944516 0.063247
v -0.441179 0.872645 0.069059
v 0.444437 -0.923513 0.011247
v 0.436425 -0.923248 -0.064106
v 0.492203 -0.904512 -0.082066
v 0.495324 -0.905243 -0.011267
v 0.681013 0.883928 -0.070236
v 0.665110 0.959832 -0.064030
v 0.671828 0.944788 0.011646
v 0.683661 0.872469 0.017633
v -0.444437 -0.923513 0.011247
v -0.436425 -0.923248 -0.064106
v -0.671828 0.944788 0.011646
v -0.683661 0.872469 0.017633
v -0.665110 0.959832 -0.064030
v -0.681013 0.883928 -0.070236
v 0.465814 -0.875259 0.017518
v 0.515423 -0.867463 -0.008656
v 0.511569 -0.867191 -0.084836
v 0.462252 -0.875259 -0.070122
v -0.511568 -0.867191 -0.084836
v -0.515423 -0.867463 -0.008656
v -0.462252 -0.875259 -0.070122
v -0.465814 -0.875259 0.017518
v -0.495324 -0.905243 -0.011267
v -0.492203 -0.904512 -0.082066
v 0.000000 -0.875259 0.106264
v -0.260241 -0.875259 0.068931
v 0.260241 -0.875259 0.068931
v 0.253215 -0.875259 -0.019287
v 0.000000 -0.875259 -0.009113
v -0.253216 -0.875259 -0.019287
v 0.000000 0.959575 0.048883
v -0.441658 0.959798 0.025279
v -0.668469 0.959719 -0.026192
v -0.749648 0.939928 -0.046276
v -0.759395 0.864902 -0.046581
v -0.527769 -0.867327 -0.046746
v -0.508037 -0.921080 -0.046666
v -0.440431 -0.939582 -0.026430
v -0.254110 -0.939689 0.025240
v 0.000000 -0.939427 0.048907
v 0.254110 -0.939689 0.025240
v 0.440431 -0.939582 -0.026430
v 0.508037 -0.921080 -0.046666
v 0.527769 -0.867327 -0.046746
v 0.759395 0.864902 -0.046581
v 0.749648 0.939928 -0.046276
v 0.668469 0.959719 -0.026192
v 0.441659 0.959798 0.025279
vt 0.293719 0.348830
vt 0.293336 0.370168
vt 0.162507 0.368294
vt 0.161245 0.346929
vt 0.160183 0.334850
vt 0.294005 0.332933
vt 0.059661 0.078793
vt 0.059233 0.162992
vt 0.044480 0.162956
vt 0.159141 0.323678
vt 0.283736 0.904278
vt 0.283450 0.920151
vt 0.205108 0.915715
vt 0.207111 0.903557
vt 0.068419 0.370955
vt 0.056610 0.371582
vt 0.063405 0.342112
vt 0.069993 0.352378
vt 0.529772 0.357644
vt 0.529859 0.380089
vt 0.518080 0.379038
vt 0.517174 0.360416
vt 0.361901 0.918534
vt 0.360337 0.906311
vt 0.429115 0.328530
vt 0.059255 0.247191
vt 0.426177 0.351691
vt 0.427672 0.339658
vt 0.424148 0.372997
vt 0.148921 0.900720
vt 0.145798 0.912028
vt 0.119443 0.901715
vt 0.131476 0.896693
vt 0.044487 0.373109
vt 0.060340 0.030104
vt 0.045661 0.033191
vt 0.063376 0.330298
vt 0.088815 0.336298
vt 0.091316 0.347808
vt 0.088580 0.368790
vt 0.421305 0.916980
vt 0.418591 0.905567
vt 0.496029 0.355083
vt 0.498009 0.376150
vt 0.498942 0.343671
vt 0.059699 0.295883
vt 0.045035 0.292726
vt 0.360319 0.888041
vt 0.284053 0.886603
vt 0.293194 0.378083
vt 0.423160 0.380909
vt 0.163210 0.376236
vt 0.207785 0.885300
vt 0.143734 0.886392
vt 0.127212 0.884104
vt 0.115451 0.885215
vt 0.103432 0.887588
vt 0.399487 0.073088
vt 0.397188 0.163807
vt 0.063035 0.163001
vt 0.063484 0.078491
vt 0.063076 0.247511
vt 0.396972 0.213205
vt 0.397204 0.250788
vt 0.063133 0.291987
vt 0.452597 0.891275
vt 0.440883 0.889742
vt 0.417825 0.887945
vt 0.491253 0.383538
vt 0.397624 0.076827
vt 0.063755 0.034017
vt 0.150319 0.883136
vt 0.095067 0.376417
vt 0.063370 0.308218
vt 0.399049 0.254536
vt 0.397527 0.264462
vt 0.541422 0.358207
vt 0.424290 0.891435
vt 0.442537 0.913030
vt 0.436169 0.902169
vt 0.283988 0.890245
vt 0.360995 0.891880
vt 0.206972 0.889111
vt 0.141884 0.923427
vt 0.405202 0.066935
vt 0.409152 0.115244
vt 0.409063 0.163836
vt 0.399673 0.163813
vt 0.399451 0.212839
vt 0.408917 0.212427
vt 0.424808 0.928512
vt 0.461271 0.906968
vt 0.283163 0.936129
vt 0.397211 0.114409
vt 0.399688 0.114787
vt 0.057503 0.349155
vt 0.049684 0.019510
vt 0.045840 0.349299
vt 0.124722 0.907318
vt 0.448014 0.907621
vt 0.524127 0.350393
vt 0.048992 0.306426
vt 0.524580 0.338588
vt 0.464522 0.894078
vt 0.443853 0.925713
vt 0.404734 0.260717
vt 0.398012 0.063155
vt 0.122951 0.919945
vt 0.106218 0.900586
vt 0.408338 0.249417
vt 0.501974 0.332964
vt 0.203019 0.927683
vt 0.408750 0.078252
vt 0.044846 0.077933
vt 0.086170 0.325490
vt 0.541918 0.382050
vt 0.064070 0.017787
vt 0.044436 0.247980
vt 0.363558 0.930569
vt 0.294280 0.317647
vn -0.000000 0.079292 0.996852
vn -0.000000 -0.027795 0.999614
vn 0.129298 -0.029974 0.991153
vn 0.131325 0.084396 0.987740
vn 0.022778 0.982507 0.184829
vn -0.000000 0.984299 0.176508
vn -0.000000 0.947188 0.320678
vn 0.038991 0.942068 0.333147
vn -0.087815 -0.025716 -0.995805
vn 0.000000 0.086301 -0.996269
vn 0.000000 0.086301 -0.996269
vn -0.092681 0.079353 -0.992529
vn 0.000000 -0.938144 0.346246
vn 0.000000 -0.938144 0.346246
vn 0.068551 -0.928956 0.363789
vn 0.063816 -0.930462 0.360788
vn 0.943814 -0.116555 0.309240
vn 0.943827 -0.116334 0.309286
vn 0.925338 0.142695 0.351266
vn 0.925338 0.142695 0.351266
vn -0.925338 0.142697 0.351266
vn -0.943828 -0.116334 0.309282
vn -0.943816 -0.116556 0.309236
vn -0.925338 0.142697 0.351266
vn -0.068551 -0.928955 0.363790
vn -0.063816 -0.930462 0.360789
vn 0.092681 0.079354 -0.992529
vn 0.087815 -0.025717 -0.995805
vn -0.038991 0.942068 0.333148
vn -0.022778 0.982507 0.184829
vn -0.129298 -0.029973 0.991153
vn -0.131325 0.084397 0.987740
vn 0.169324 -0.903188 0.394438
vn 0.187450 -0.898831 0.396190
vn 0.401324 -0.820915 0.406248
vn 0.401324 -0.820915 0.406248
vn -0.249083 0.031919 -0.967956
vn -0.266903 0.032120 -0.963188
vn -0.213939 0.060479 -0.974973
vn -0.230088 0.022123 -0.972918
vn 0.295523 0.944652 0.142473
vn 0.105703 0.977414 0.182999
vn 0.138976 0.917787 0.371958
vn 0.344167 0.853732 0.390758
vn 0.237717 0.097640 0.966415
vn 0.389318 -0.040450 0.920215
vn 0.418555 -0.048383 0.906902
vn 0.375859 0.121617 0.918661
vn -0.187450 -0.898830 0.396190
vn -0.169324 -0.903188 0.394437
vn -0.237716 0.097641 0.966415
vn -0.389318 -0.040450 0.920215
vn -0.105703 0.977414 0.182999
vn -0.138976 0.917787 0.371959
vn 0.266903 0.032120 -0.963188
vn 0.213939 0.060480 -0.974973
vn -0.153096 -0.013453 0.988120
vn 0.000000 -0.005647 0.999984
vn -0.000000 -0.011859 0.999930
vn -0.160829 -0.021269 0.986753
vn 0.160829 -0.021269 0.986753
vn 0.153096 -0.013453 0.988120
vn 0.409916 -0.071764 0.909296
vn 0.420716 -0.057447 0.905372
vn 0.941452 -0.133787 0.309465
vn 0.941751 -0.132522 0.309101
vn -0.250316 0.032586 -0.967616
vn -0.294315 0.033381 -0.955125
vn -0.104325 0.010790 -0.994485
vn 0.000000 0.001593 -0.999999
vn 0.000000 -0.004845 -0.999988
vn -0.117130 0.006735 -0.993094
vn 0.117130 0.006735 -0.993094
vn 0.104325 0.010790 -0.994485
vn 0.259135 0.030304 -0.965366
vn 0.266255 0.024564 -0.963590
vn -0.941752 -0.132523 0.309097
vn -0.941454 -0.133788 0.309461
vn -0.240201 -0.028025 0.970319
vn -0.239504 -0.037407 0.970175
vn -0.259135 0.030304 -0.965366
vn -0.266254 0.024564 -0.963590
vn 0.240201 -0.028025 0.970319
vn 0.239504 -0.037407 0.970175
vn 0.249083 0.031919 -0.967956
vn 0.294316 0.033381 -0.955125
vn 0.250315 0.032586 -0.967616
vn 0.230087 0.022124 -0.972919
vn -0.295522 0.944652 0.142475
vn -0.344166 0.853732 0.390758
vn -0.418555 -0.048383 0.906902
vn -0.375859 0.121618 0.918661
vn -0.420717 -0.057447 0.905371
vn -0.409917 -0.071764 0.909295
vn -0.401326 -0.820913 0.406250
vn -0.401326 -0.820913 0.406250
vn -0.188134 -0.150392 0.970561
vn 0.000000 -0.125727 0.992065
vn 0.000000 -0.125727 0.992065
vn -0.191532 -0.152294 0.969599
vn 0.191532 -0.152294 0.969599
vn 0.188134 -0.150392 0.970561
vn 0.273803 -0.198654 0.941046
vn 0.478753 -0.315390 0.819344
vn 0.848014 -0.379256 0.370186
vn 0.848014 -0.379256 0.370186
vn -0.255392 -0.046770 -0.965706
vn -0.311892 0.067622 -0.947708
vn -0.130617 -0.100446 -0.986332
vn -0.137485 -0.097943 -0.985650
vn -0.000000 -0.132969 -0.991120
vn -0.000000 -0.132969 -0.991120
vn 0.137486 -0.097944 -0.985649
vn 0.130617 -0.100447 -0.986332
vn 0.255392 -0.046771 -0.965706
vn 0.311893 0.067621 -0.947708
vn -0.848011 -0.379261 0.370186
vn -0.848012 -0.379261 0.370186
vn -0.273803 -0.198655 0.941046
vn -0.478757 -0.315395 0.819340
vn 0.000000 -0.456759 -0.889591
vn -0.370101 0.046605 0.927822
vn -0.370101 0.046605 0.927822
vn -0.370101 0.046605 0.927822
vn -0.370101 0.046605 0.927822
vn 0.370098 0.046605 0.927823
vn 0.370098 0.046605 0.927823
vn 0.370098 0.046605 0.927823
vn 0.370098 0.046605 0.927823
vn -0.000000 0.686297 0.727321
vn -0.128490 0.720147 0.681820
vn -0.134743 0.729460 0.670621
vn -0.000000 0.686297 0.727321
vn 0.128490 0.720147 0.681820
vn 0.134743 0.729460 0.670621
vn 0.161487 0.767748 0.620069
vn 0.161487 0.767748 0.620069
vn -0.109183 0.649395 -0.752572
vn -0.202605 0.579675 -0.789258
vn -0.202605 0.579675 -0.789258
vn -0.093941 0.659747 -0.745593
vn -0.000000 0.701033 -0.713129
vn -0.000000 0.701033 -0.713129
vn 0.109182 0.649394 -0.752573
vn 0.093941 0.659744 -0.745595
vn 0.202605 0.579678 -0.789256
vn 0.202605 0.579678 -0.789256
vn -0.161486 0.767747 0.620070
vn -0.161486 0.767747 0.620070
vn -0.000000 0.999967 0.008149
vn -0.000623 0.999969 0.007905
vn -0.073337 0.997216 -0.013489
vn -0.241311 0.968374 -0.063411
vn -0.914880 -0.112686 -0.387681
vn -0.914900 -0.112478 -0.387694
vn -0.911661 0.124342 -0.391681
vn -0.911661 0.124342 -0.391681
vn -0.912031 -0.129698 -0.389073
vn -0.912401 -0.128251 -0.388685
vn -0.819868 -0.365743 -0.440510
vn -0.819868 -0.365743 -0.440510
vn 0.028895 -0.915388 -0.401535
vn 0.054408 -0.917093 -0.394944
vn -0.133288 -0.889651 -0.436755
vn -0.133288 -0.889651 -0.436755
vn 0.057180 -0.933633 -0.353638
vn 0.052458 -0.934983 -0.350793
vn 0.000000 -0.942873 -0.333151
vn 0.000000 -0.942874 -0.333151
vn -0.052458 -0.934982 -0.350794
vn -0.057180 -0.933633 -0.353639
vn -0.054409 -0.917093 -0.394944
vn -0.028896 -0.915388 -0.401534
vn 0.133287 -0.889651 -0.436756
vn 0.133287 -0.889651 -0.436756
vn 0.912402 -0.128251 -0.388684
vn 0.819866 -0.365745 -0.440511
vn 0.819866 -0.365745 -0.440511
vn 0.912032 -0.129698 -0.389072
vn 0.914901 -0.112478 -0.387693
vn 0.914881 -0.112686 -0.387680
vn 0.911661 0.124343 -0.391680
vn 0.911661 0.124343 -0.391680
vn 0.073337 0.997216 -0.013490
vn 0.241313 0.968373 -0.063414
vn 0.000623 0.999969 0.007905
s 1
g schild_02
usemtl initialShadingGroup
f 21/1/1 22/2/2 23/3/3 24/4/4
s 2
f 94/5/5 77/6/6 21/1/7 24/4/8
s 3
f 27/7/9 28/8/10 25/9/11 26/114/12
s 4
f 29/11/13 86/12/14 87/13/15 32/14/16
s 5
f 33/15/17 91/16/18 92/96/19 36/18/20
s 6
f 80/19/21 81/20/22 38/21/23 39/22/24
s 4
f 85/23/25 86/12/14 29/11/13 42/24/26
s 3
f 43/118/27 25/9/11 28/8/10 44/26/28
s 2
f 45/27/29 21/1/7 77/6/6 78/28/30
s 1
f 46/29/31 22/2/2 21/1/1 45/27/32
s 4
f 47/30/33 88/31/34 89/99/35 50/33/36
s 3
f 34/117/37 51/35/38 52/36/39 35/97/40
s 2
f 92/17/41 93/38/42 53/39/43 36/18/44
s 1
f 53/39/45 54/40/46 33/15/47 36/18/48
s 4
f 84/41/49 85/23/25 42/24/26 55/42/50
s 1
f 57/43/51 58/44/52 46/29/31 45/27/32
s 2
f 45/27/29 78/28/30 79/45/53 57/43/54
s 3
f 43/118/27 44/26/28 60/46/55 59/47/56
s 1
f 11/48/57 12/49/58 2/50/59 1/51/60
f 3/52/61 2/50/59 12/49/58 13/53/62
f 33/15/47 54/40/46 61/54/63 62/55/64
s 5
f 62/55/65 90/56/66 91/16/18 33/15/17
s 3
f 63/107/67 64/58/68 51/35/38 34/117/37
f 16/94/69 17/59/70 5/60/71 4/61/72
f 6/62/73 5/60/71 17/59/70 18/63/74
f 18/63/74 19/64/75 9/65/76 6/62/73
s 6
f 81/20/22 82/66/77 66/67/78 38/21/23
s 1
f 20/68/79 11/48/57 1/51/60 10/69/80
s 3
f 15/70/81 16/94/69 4/61/72 7/71/82
f 52/36/39 51/35/38 27/7/9 26/114/12
s 2
f 93/38/42 94/5/5 24/4/8 53/39/43
s 1
f 24/4/4 23/3/3 54/40/46 53/39/45
f 13/53/62 14/72/83 8/73/84 3/52/61
s 4
f 32/14/16 87/13/15 88/31/34 47/30/33
s 3
f 37/74/85 60/46/55 67/75/86 65/76/87
f 59/47/56 60/46/55 37/74/85 40/102/88
s 2
f 57/43/54 79/45/53 80/101/89 39/22/90
s 1
f 38/21/91 58/44/52 57/43/51 39/22/92
f 66/67/93 68/78/94 58/44/52 38/21/91
s 4
f 83/79/95 84/41/49 55/42/50 69/80/96
s 1
f 42/24/97 29/11/98 71/81/99 72/82/100
f 73/83/101 71/81/99 29/11/98 32/14/102
f 47/30/103 61/54/63 73/83/101 32/14/102
f 62/55/64 61/54/63 47/30/103 50/33/104
s 5
f 50/33/105 89/32/106 90/56/66 62/55/65
s 3
f 48/113/107 64/58/68 63/107/67 49/85/108
f 31/86/109 74/95/110 64/58/68 48/113/107
f 30/87/111 75/88/112 74/95/110 31/86/109
f 76/89/113 75/88/112 30/87/111 41/90/114
f 56/110/115 67/75/86 76/89/113 41/90/114
f 65/76/87 67/75/86 56/110/115 70/106/116
s 6
f 82/66/77 83/100/117 69/80/118 66/67/78
s 1
f 55/42/119 68/78/94 66/67/93 69/80/120
f 42/24/97 72/82/100 68/78/94 55/42/119
f 2/50/59 3/52/61 23/3/3 22/2/2
s 3
f 4/61/72 5/60/71 28/8/121 27/7/9
f 5/60/71 6/62/73 44/26/28 28/8/121
s 1
f 1/51/60 2/50/59 22/2/2 46/29/31
f 10/69/80 1/51/60 46/29/31 58/44/52
s 3
f 6/62/73 9/65/76 60/46/55 44/26/28
s off
f 8/73/122 14/72/123 61/54/124 54/40/125
s 3
f 15/70/81 7/71/82 51/35/38 64/58/68
f 7/71/82 4/61/72 27/7/9 51/35/38
s 1
f 3/52/61 8/73/84 54/40/46 23/3/3
s 3
f 9/65/76 19/64/75 67/75/86 60/46/55
s off
f 20/68/126 10/69/127 58/44/128 68/78/129
s 12
f 12/49/130 11/48/131 72/82/132 71/81/133
f 13/53/134 12/49/130 71/81/133 73/83/135
f 14/72/136 13/53/134 73/83/135 61/54/137
s 13
f 16/94/138 15/70/139 64/58/140 74/95/141
f 17/59/142 16/94/138 74/95/141 75/88/143
f 18/63/144 17/59/142 75/88/143 76/89/145
f 19/64/146 18/63/144 76/89/145 67/75/147
s 12
f 11/48/131 20/68/148 68/78/149 72/82/132
s 2
f 78/28/30 77/6/6 25/120/150 43/25/151
f 79/45/53 78/28/30 43/25/151 59/111/152
f 80/101/89 79/45/53 59/111/152 40/103/153
s 14
f 37/116/154 81/20/155 80/19/156 40/77/157
f 65/104/158 82/66/159 81/20/155 37/116/154
f 70/92/160 83/100/161 82/66/159 65/104/158
s 15
f 56/91/162 84/41/163 83/79/164 70/105/165
f 41/119/166 85/23/167 84/41/163 56/91/162
f 41/119/166 30/93/168 86/12/169 85/23/167
f 87/13/170 86/12/169 30/93/168 31/112/171
f 88/31/172 87/13/170 31/112/171 48/84/173
f 89/99/174 88/31/172 48/84/173 49/108/175
s 16
f 90/56/176 89/32/177 49/109/178 63/57/179
f 91/16/180 90/56/176 63/57/179 34/34/181
f 92/96/182 91/16/180 34/34/181 35/98/183
s 2
f 52/115/184 93/38/42 92/17/41 35/37/185
f 26/10/186 94/5/5 93/38/42 52/115/184
f 25/120/150 77/6/6 94/5/5 26/10/186
